---
title: 薰妮1983-梦（2000年永恒真存版）【永恒】【WAV+CUE】
date: 2022-12-08 09:09:13
categories: WAV车载音乐、镜像
tags: 华语中文
---
# 薰妮1983-梦（2000年永恒真存版）【永恒】【WAV+CUE】

PERFORMER "薰妮"
TITLE "梦 [香港永恒真存珍藏版]"
FILE "薰妮.-.[梦](1983)[WAV].wav" WAVE
TRACK 01 AUDIO
TITLE "梦"
PERFORMER "薰妮"
FLAGS DCP
INDEX 01 00:00:00
TRACK 02 AUDIO
TITLE "蝴蠂夫人"
PERFORMER "薰妮"
FLAGS DCP
INDEX 00 03:34:18
INDEX 01 03:35:63
TRACK 03 AUDIO
TITLE "爱的俘虏"
PERFORMER "薰妮"
FLAGS DCP
INDEX 00 07:58:43
INDEX 01 08:00:13
TRACK 04 AUDIO
TITLE "我爱为了谁"
PERFORMER "薰妮"
FLAGS DCP
INDEX 00 11:44:64
INDEX 01 11:46:34
TRACK 05 AUDIO
TITLE "愿你归来"
PERFORMER "薰妮"
FLAGS DCP
INDEX 00 15:18:39
INDEX 01 15:20:09
TRACK 06 AUDIO
TITLE "掉眼泪"
PERFORMER "薰妮"
FLAGS DCP
INDEX 00 18:08:21
INDEX 01 18:09:66
TRACK 07 AUDIO
TITLE "斜阳暖风"
PERFORMER "薰妮"
FLAGS DCP
INDEX 00 21:18:53
INDEX 01 21:20:23
TRACK 08 AUDIO
TITLE "时间"
PERFORMER "薰妮"
FLAGS DCP
INDEX 00 24:43:30
INDEX 01 24:44:74
TRACK 09 AUDIO
TITLE "迷离的细雨"
PERFORMER "薰妮"
FLAGS DCP
INDEX 00 28:16:08
INDEX 01 28:17:53
TRACK 10 AUDIO
TITLE "今天悔恨迟"
PERFORMER "薰妮"
FLAGS DCP
INDEX 00 33:35:13
INDEX 01 33:36:58
TRACK 11 AUDIO
TITLE "爱的源沟"
PERFORMER "薰妮"
FLAGS DCP
INDEX 00 38:13:43
INDEX 01 38:15:13
PERFORMER "薰妮"
TITLE "梦 [香港永恒真存珍藏版]"
FILE "薰妮.-.[梦](1983)[WAV].wav" WAVE
TRACK 01 AUDIO
TITLE "梦"
PERFORMER "薰妮"
FLAGS DCP
INDEX 01 00:00:00
TRACK 02 AUDIO
TITLE "蝴蠂夫人"
PERFORMER "薰妮"
FLAGS DCP
INDEX 00 03:34:18
INDEX 01 03:35:63
TRACK 03 AUDIO
TITLE "爱的俘虏"
PERFORMER "薰妮"
FLAGS DCP
INDEX 00 07:58:43
INDEX 01 08:00:13
TRACK 04 AUDIO
TITLE "我爱为了谁"
PERFORMER "薰妮"
FLAGS DCP
INDEX 00 11:44:64
INDEX 01 11:46:34
TRACK 05 AUDIO
TITLE "愿你归来"
PERFORMER "薰妮"
FLAGS DCP
INDEX 00 15:18:39
INDEX 01 15:20:09
TRACK 06 AUDIO
TITLE "掉眼泪"
PERFORMER "薰妮"
FLAGS DCP
INDEX 00 18:08:21
INDEX 01 18:09:66
TRACK 07 AUDIO
TITLE "斜阳暖风"
PERFORMER "薰妮"
FLAGS DCP
INDEX 00 21:18:53
INDEX 01 21:20:23
TRACK 08 AUDIO
TITLE "时间"
PERFORMER "薰妮"
FLAGS DCP
INDEX 00 24:43:30
INDEX 01 24:44:74
TRACK 09 AUDIO
TITLE "迷离的细雨"
PERFORMER "薰妮"
FLAGS DCP
INDEX 00 28:16:08
INDEX 01 28:17:53
TRACK 10 AUDIO
TITLE "今天悔恨迟"
PERFORMER "薰妮"
FLAGS DCP
INDEX 00 33:35:13
INDEX 01 33:36:58
TRACK 11 AUDIO
TITLE "爱的源沟"
PERFORMER "薰妮"
FLAGS DCP
INDEX 00 38:13:43
INDEX 01 38:15:13
薰妮1983 - 梦（2000年永恒真存版）【永恒】【WAV+CUE】..rar: https://url27.ctfile.com/f/9388027-741934950-5e397e?p=559675
(访问密码: 559675)
薰妮CD: https://url27.ctfile.com/d/9388027-44832554-a368f5?p=559675
(访问密码: 559675)
原文：[链接](https://blog.sina.com.cn/s/blog_1647c7e76010310i0.html)